<mxfile host="65bd71144e">
    <diagram id="MsI5J3Z540rOyUWbb0k3" name="Page-1">
        <mxGraphModel dx="1113" dy="787" grid="1" gridSize="10" guides="1" tooltips="1" connect="1" arrows="1" fold="1" page="1" pageScale="1" pageWidth="1200" pageHeight="1600" math="0" shadow="0">
            <root>
                <mxCell id="0"/>
                <mxCell id="1" parent="0"/>
                <mxCell id="4" value="" style="edgeStyle=none;html=1;entryX=0.5;entryY=0;entryDx=0;entryDy=0;" parent="1" source="2" target="73" edge="1">
                    <mxGeometry relative="1" as="geometry">
                        <mxPoint x="389.9999999999998" y="110" as="targetPoint"/>
                    </mxGeometry>
                </mxCell>
                <mxCell id="2" value="System" style="shape=process;whiteSpace=wrap;html=1;backgroundOutline=1;" parent="1" vertex="1">
                    <mxGeometry x="150" y="10" width="120" height="60" as="geometry"/>
                </mxCell>
                <mxCell id="6" value="" style="edgeStyle=none;html=1;fontSize=24;entryX=0.5;entryY=0;entryDx=0;entryDy=0;" parent="1" source="3" target="78" edge="1">
                    <mxGeometry relative="1" as="geometry">
                        <mxPoint x="209.99999999999977" y="330" as="targetPoint"/>
                    </mxGeometry>
                </mxCell>
                <mxCell id="3" value="&lt;font style=&quot;font-size: 24px;&quot;&gt;status&lt;/font&gt;" style="whiteSpace=wrap;html=1;" parent="1" vertex="1">
                    <mxGeometry x="150" y="230" width="120" height="60" as="geometry"/>
                </mxCell>
                <mxCell id="8" value="" style="edgeStyle=none;html=1;fontSize=24;exitX=0.5;exitY=1;exitDx=0;exitDy=0;entryX=0.5;entryY=0;entryDx=0;entryDy=0;" parent="1" source="42" target="43" edge="1">
                    <mxGeometry relative="1" as="geometry">
                        <mxPoint x="210" y="650" as="sourcePoint"/>
                        <mxPoint x="210" y="730" as="targetPoint"/>
                    </mxGeometry>
                </mxCell>
                <mxCell id="11" value="NO" style="edgeLabel;html=1;align=center;verticalAlign=middle;resizable=0;points=[];fontSize=12;" parent="8" vertex="1" connectable="0">
                    <mxGeometry x="0.275" y="1" relative="1" as="geometry">
                        <mxPoint as="offset"/>
                    </mxGeometry>
                </mxCell>
                <mxCell id="14" value="" style="edgeStyle=none;html=1;fontSize=12;exitX=1;exitY=0.5;exitDx=0;exitDy=0;" parent="1" source="42" target="13" edge="1">
                    <mxGeometry relative="1" as="geometry">
                        <mxPoint x="270" y="620" as="sourcePoint"/>
                    </mxGeometry>
                </mxCell>
                <mxCell id="15" value="YES" style="edgeLabel;html=1;align=center;verticalAlign=middle;resizable=0;points=[];fontSize=12;" parent="14" vertex="1" connectable="0">
                    <mxGeometry x="-0.375" y="-2" relative="1" as="geometry">
                        <mxPoint as="offset"/>
                    </mxGeometry>
                </mxCell>
                <mxCell id="10" value="" style="edgeStyle=none;html=1;fontSize=24;exitX=0.5;exitY=1;exitDx=0;exitDy=0;entryX=0.5;entryY=0;entryDx=0;entryDy=0;" parent="1" source="43" target="44" edge="1">
                    <mxGeometry relative="1" as="geometry">
                        <mxPoint x="210" y="790" as="sourcePoint"/>
                        <mxPoint x="210" y="870" as="targetPoint"/>
                    </mxGeometry>
                </mxCell>
                <mxCell id="12" value="NO" style="edgeLabel;html=1;align=center;verticalAlign=middle;resizable=0;points=[];fontSize=12;" parent="10" vertex="1" connectable="0">
                    <mxGeometry x="0.3" y="-1" relative="1" as="geometry">
                        <mxPoint as="offset"/>
                    </mxGeometry>
                </mxCell>
                <mxCell id="17" value="" style="edgeStyle=none;html=1;fontSize=12;exitX=1;exitY=0.5;exitDx=0;exitDy=0;" parent="1" source="43" target="16" edge="1">
                    <mxGeometry relative="1" as="geometry">
                        <mxPoint x="270" y="760" as="sourcePoint"/>
                    </mxGeometry>
                </mxCell>
                <mxCell id="18" value="YES" style="edgeLabel;html=1;align=center;verticalAlign=middle;resizable=0;points=[];fontSize=12;" parent="17" vertex="1" connectable="0">
                    <mxGeometry x="-0.625" y="-2" relative="1" as="geometry">
                        <mxPoint x="5" y="-2" as="offset"/>
                    </mxGeometry>
                </mxCell>
                <mxCell id="20" value="" style="edgeStyle=none;html=1;fontSize=12;exitX=1;exitY=0.5;exitDx=0;exitDy=0;entryX=0;entryY=0.5;entryDx=0;entryDy=0;" parent="1" source="44" target="97" edge="1">
                    <mxGeometry relative="1" as="geometry">
                        <mxPoint x="270" y="900" as="sourcePoint"/>
                        <mxPoint x="290" y="930" as="targetPoint"/>
                    </mxGeometry>
                </mxCell>
                <mxCell id="21" value="YES" style="edgeLabel;html=1;align=center;verticalAlign=middle;resizable=0;points=[];fontSize=12;" parent="20" vertex="1" connectable="0">
                    <mxGeometry x="-0.5" y="2" relative="1" as="geometry">
                        <mxPoint as="offset"/>
                    </mxGeometry>
                </mxCell>
                <mxCell id="34" value="" style="edgeStyle=none;html=1;fontSize=12;exitX=0.5;exitY=1;exitDx=0;exitDy=0;entryX=0.5;entryY=0;entryDx=0;entryDy=0;" parent="1" source="44" target="45" edge="1">
                    <mxGeometry relative="1" as="geometry">
                        <mxPoint x="210" y="930" as="sourcePoint"/>
                        <mxPoint x="210" y="1010" as="targetPoint"/>
                    </mxGeometry>
                </mxCell>
                <mxCell id="35" value="NO" style="edgeLabel;html=1;align=center;verticalAlign=middle;resizable=0;points=[];fontSize=12;" parent="34" vertex="1" connectable="0">
                    <mxGeometry x="0.4" y="1" relative="1" as="geometry">
                        <mxPoint as="offset"/>
                    </mxGeometry>
                </mxCell>
                <mxCell id="49" value="" style="edgeStyle=none;html=1;fontSize=12;" parent="1" source="13" target="48" edge="1">
                    <mxGeometry relative="1" as="geometry"/>
                </mxCell>
                <mxCell id="13" value="performSetup()" style="whiteSpace=wrap;html=1;" parent="1" vertex="1">
                    <mxGeometry x="480" y="590" width="120" height="60" as="geometry"/>
                </mxCell>
                <mxCell id="41" value="" style="edgeStyle=none;html=1;fontSize=12;" parent="1" source="16" target="40" edge="1">
                    <mxGeometry relative="1" as="geometry"/>
                </mxCell>
                <mxCell id="16" value="performMode()" style="whiteSpace=wrap;html=1;" parent="1" vertex="1">
                    <mxGeometry x="480" y="730" width="120" height="60" as="geometry"/>
                </mxCell>
                <mxCell id="47" value="" style="edgeStyle=none;html=1;fontSize=12;" parent="1" source="19" target="46" edge="1">
                    <mxGeometry relative="1" as="geometry"/>
                </mxCell>
                <mxCell id="19" value="performStart()" style="whiteSpace=wrap;html=1;" parent="1" vertex="1">
                    <mxGeometry x="480" y="800" width="120" height="60" as="geometry"/>
                </mxCell>
                <mxCell id="28" style="edgeStyle=none;html=1;exitX=0.5;exitY=1;exitDx=0;exitDy=0;entryX=0.5;entryY=0;entryDx=0;entryDy=0;fontSize=12;" parent="1" source="78" target="27" edge="1">
                    <mxGeometry relative="1" as="geometry">
                        <mxPoint x="209.99999999999977" y="390" as="sourcePoint"/>
                    </mxGeometry>
                </mxCell>
                <mxCell id="29" style="edgeStyle=none;html=1;exitX=0;exitY=0.5;exitDx=0;exitDy=0;entryX=0.5;entryY=0;entryDx=0;entryDy=0;fontSize=12;" parent="1" source="27" target="27" edge="1">
                    <mxGeometry relative="1" as="geometry">
                        <mxPoint x="149.99999999999977" y="360" as="targetPoint"/>
                        <Array as="points">
                            <mxPoint x="70" y="495"/>
                            <mxPoint x="70" y="450"/>
                        </Array>
                    </mxGeometry>
                </mxCell>
                <mxCell id="30" value="YES" style="edgeLabel;html=1;align=center;verticalAlign=middle;resizable=0;points=[];fontSize=12;" parent="29" vertex="1" connectable="0">
                    <mxGeometry x="-0.6561" relative="1" as="geometry">
                        <mxPoint x="19" as="offset"/>
                    </mxGeometry>
                </mxCell>
                <mxCell id="31" style="edgeStyle=none;html=1;exitX=0.5;exitY=1;exitDx=0;exitDy=0;entryX=0.5;entryY=0;entryDx=0;entryDy=0;fontSize=12;" parent="1" source="27" target="42" edge="1">
                    <mxGeometry relative="1" as="geometry">
                        <mxPoint x="210" y="590" as="targetPoint"/>
                    </mxGeometry>
                </mxCell>
                <mxCell id="32" value="NO" style="edgeLabel;html=1;align=center;verticalAlign=middle;resizable=0;points=[];fontSize=12;" parent="31" vertex="1" connectable="0">
                    <mxGeometry x="-0.4824" y="1" relative="1" as="geometry">
                        <mxPoint x="-1" y="7" as="offset"/>
                    </mxGeometry>
                </mxCell>
                <mxCell id="27" value="FLAG.SETUP != 1" style="rhombus;whiteSpace=wrap;html=1;fontSize=12;" parent="1" vertex="1">
                    <mxGeometry x="140" y="450" width="140" height="90" as="geometry"/>
                </mxCell>
                <mxCell id="59" style="edgeStyle=none;html=1;exitX=1;exitY=0.5;exitDx=0;exitDy=0;fontSize=12;entryX=0.5;entryY=0;entryDx=0;entryDy=0;" parent="1" source="40" target="51" edge="1">
                    <mxGeometry relative="1" as="geometry">
                        <mxPoint x="905" y="760.4705882352941" as="targetPoint"/>
                        <mxPoint x="650" y="760" as="sourcePoint"/>
                        <Array as="points">
                            <mxPoint x="910" y="760"/>
                        </Array>
                    </mxGeometry>
                </mxCell>
                <mxCell id="40" value="handleMode()" style="whiteSpace=wrap;html=1;" parent="1" vertex="1">
                    <mxGeometry x="680" y="730" width="120" height="60" as="geometry"/>
                </mxCell>
                <mxCell id="42" value="STATUS_SETUP" style="shape=hexagon;perimeter=hexagonPerimeter2;whiteSpace=wrap;html=1;fixedSize=1;fontSize=12;" parent="1" vertex="1">
                    <mxGeometry x="150" y="590" width="120" height="60" as="geometry"/>
                </mxCell>
                <mxCell id="43" value="STATUS_MODE" style="shape=hexagon;perimeter=hexagonPerimeter2;whiteSpace=wrap;html=1;fixedSize=1;fontSize=12;" parent="1" vertex="1">
                    <mxGeometry x="150" y="730" width="120" height="60" as="geometry"/>
                </mxCell>
                <mxCell id="44" value="STATUS_START" style="shape=hexagon;perimeter=hexagonPerimeter2;whiteSpace=wrap;html=1;fixedSize=1;fontSize=12;" parent="1" vertex="1">
                    <mxGeometry x="150" y="870" width="120" height="60" as="geometry"/>
                </mxCell>
                <mxCell id="54" style="edgeStyle=none;html=1;exitX=1;exitY=0.5;exitDx=0;exitDy=0;entryX=0;entryY=0.5;entryDx=0;entryDy=0;fontSize=12;" parent="1" source="45" target="53" edge="1">
                    <mxGeometry relative="1" as="geometry"/>
                </mxCell>
                <mxCell id="45" value="default" style="shape=hexagon;perimeter=hexagonPerimeter2;whiteSpace=wrap;html=1;fixedSize=1;fontSize=12;" parent="1" vertex="1">
                    <mxGeometry x="150" y="1010" width="120" height="60" as="geometry"/>
                </mxCell>
                <mxCell id="60" style="edgeStyle=none;html=1;exitX=1;exitY=0.5;exitDx=0;exitDy=0;entryX=0.5;entryY=0;entryDx=0;entryDy=0;fontSize=12;" parent="1" source="46" target="51" edge="1">
                    <mxGeometry relative="1" as="geometry">
                        <mxPoint x="650" y="830.0000000000005" as="sourcePoint"/>
                        <Array as="points">
                            <mxPoint x="910" y="830"/>
                            <mxPoint x="910" y="900"/>
                        </Array>
                    </mxGeometry>
                </mxCell>
                <mxCell id="46" value="handleStart()" style="whiteSpace=wrap;html=1;" parent="1" vertex="1">
                    <mxGeometry x="680" y="800" width="120" height="60" as="geometry"/>
                </mxCell>
                <mxCell id="58" style="edgeStyle=none;html=1;exitX=1;exitY=0.5;exitDx=0;exitDy=0;entryX=0.5;entryY=0;entryDx=0;entryDy=0;fontSize=12;" parent="1" source="48" target="51" edge="1">
                    <mxGeometry relative="1" as="geometry">
                        <mxPoint x="650" y="620" as="sourcePoint"/>
                        <Array as="points">
                            <mxPoint x="910" y="620"/>
                        </Array>
                    </mxGeometry>
                </mxCell>
                <mxCell id="48" value="handleSetup()" style="whiteSpace=wrap;html=1;" parent="1" vertex="1">
                    <mxGeometry x="680" y="590" width="120" height="60" as="geometry"/>
                </mxCell>
                <mxCell id="62" value="1" style="edgeStyle=none;html=1;fontSize=12;" parent="1" source="51" target="61" edge="1">
                    <mxGeometry x="-0.5789" relative="1" as="geometry">
                        <mxPoint as="offset"/>
                    </mxGeometry>
                </mxCell>
                <mxCell id="67" style="edgeStyle=none;html=1;exitX=0;exitY=0.5;exitDx=0;exitDy=0;entryX=0;entryY=0.5;entryDx=0;entryDy=0;fontSize=12;" parent="1" source="51" target="3" edge="1">
                    <mxGeometry relative="1" as="geometry">
                        <Array as="points">
                            <mxPoint x="10" y="1170"/>
                            <mxPoint x="10" y="260"/>
                        </Array>
                    </mxGeometry>
                </mxCell>
                <mxCell id="69" value="0" style="edgeLabel;html=1;align=center;verticalAlign=middle;resizable=0;points=[];fontSize=12;" parent="67" vertex="1" connectable="0">
                    <mxGeometry x="-0.9668" y="-4" relative="1" as="geometry">
                        <mxPoint x="8" y="4" as="offset"/>
                    </mxGeometry>
                </mxCell>
                <mxCell id="51" value="FLAG.ERROR" style="rhombus;whiteSpace=wrap;html=1;fontSize=12;" parent="1" vertex="1">
                    <mxGeometry x="835" y="1130" width="150" height="80" as="geometry"/>
                </mxCell>
                <mxCell id="56" value="" style="edgeStyle=none;html=1;fontSize=12;" parent="1" source="53" target="55" edge="1">
                    <mxGeometry relative="1" as="geometry"/>
                </mxCell>
                <mxCell id="53" value="FLAG.UNUED = 1" style="whiteSpace=wrap;html=1;fontSize=12;" parent="1" vertex="1">
                    <mxGeometry x="480" y="1010" width="120" height="60" as="geometry"/>
                </mxCell>
                <mxCell id="57" style="edgeStyle=none;html=1;exitX=1;exitY=0.5;exitDx=0;exitDy=0;fontSize=12;entryX=1;entryY=0.5;entryDx=0;entryDy=0;fillColor=#a20025;strokeColor=#6F0000;" parent="1" source="55" edge="1">
                    <mxGeometry relative="1" as="geometry">
                        <mxPoint x="269.9999999999998" y="360" as="targetPoint"/>
                        <Array as="points">
                            <mxPoint x="960" y="1040"/>
                            <mxPoint x="960" y="360"/>
                        </Array>
                    </mxGeometry>
                </mxCell>
                <mxCell id="55" value="performUnknow()" style="whiteSpace=wrap;html=1;" parent="1" vertex="1">
                    <mxGeometry x="680" y="1010" width="120" height="60" as="geometry"/>
                </mxCell>
                <mxCell id="63" style="edgeStyle=none;html=1;exitX=0.5;exitY=0;exitDx=0;exitDy=0;entryX=1;entryY=0.5;entryDx=0;entryDy=0;fontSize=12;fillColor=#a20025;strokeColor=#6F0000;" parent="1" source="61" target="78" edge="1">
                    <mxGeometry relative="1" as="geometry">
                        <mxPoint x="269.9999999999998" y="360" as="targetPoint"/>
                        <Array as="points">
                            <mxPoint x="1140" y="360"/>
                        </Array>
                    </mxGeometry>
                </mxCell>
                <mxCell id="61" value="handleError()" style="whiteSpace=wrap;html=1;" parent="1" vertex="1">
                    <mxGeometry x="1080" y="1140" width="120" height="60" as="geometry"/>
                </mxCell>
                <mxCell id="74" style="edgeStyle=none;html=1;exitX=0.5;exitY=1;exitDx=0;exitDy=0;entryX=0.5;entryY=0;entryDx=0;entryDy=0;fontSize=12;" parent="1" source="73" target="3" edge="1">
                    <mxGeometry relative="1" as="geometry"/>
                </mxCell>
                <mxCell id="76" value="" style="edgeStyle=none;html=1;fontSize=12;entryX=0;entryY=0.5;entryDx=0;entryDy=0;" parent="1" source="73" target="77" edge="1">
                    <mxGeometry relative="1" as="geometry">
                        <mxPoint x="349.9999999999998" y="150" as="targetPoint"/>
                    </mxGeometry>
                </mxCell>
                <mxCell id="73" value="INIT SYSTEM" style="rounded=1;whiteSpace=wrap;html=1;fontSize=12;" parent="1" vertex="1">
                    <mxGeometry x="150" y="120" width="120" height="60" as="geometry"/>
                </mxCell>
                <mxCell id="77" value="&lt;font style=&quot;font-size: 14px;&quot;&gt;&amp;nbsp; -&amp;nbsp;HAL_Init()&lt;br&gt;&lt;/font&gt;&lt;div style=&quot;font-size: 14px;&quot;&gt;&lt;font style=&quot;font-size: 14px;&quot;&gt;&amp;nbsp; - MX_GPIO_Init()&lt;/font&gt;&lt;/div&gt;&lt;div style=&quot;font-size: 14px;&quot;&gt;&lt;font style=&quot;font-size: 14px;&quot;&gt;&amp;nbsp; - MX_DMA_Init()&lt;/font&gt;&lt;/div&gt;&lt;div style=&quot;font-size: 14px;&quot;&gt;&lt;font style=&quot;font-size: 14px;&quot;&gt;&amp;nbsp; - MX_ADC1_Init()&lt;/font&gt;&lt;/div&gt;&lt;div style=&quot;font-size: 14px;&quot;&gt;&lt;font style=&quot;font-size: 14px;&quot;&gt;&amp;nbsp; - MX_ADC2_Init()&lt;/font&gt;&lt;/div&gt;&lt;div style=&quot;font-size: 14px;&quot;&gt;&lt;font style=&quot;font-size: 14px;&quot;&gt;&amp;nbsp; - MX_I2C1_Init()&lt;/font&gt;&lt;/div&gt;&lt;div style=&quot;font-size: 14px;&quot;&gt;&lt;font style=&quot;font-size: 14px;&quot;&gt;&amp;nbsp; - MX_USB_DEVICE_Init()&lt;/font&gt;&lt;/div&gt;&lt;div style=&quot;font-size: 14px;&quot;&gt;&lt;font style=&quot;font-size: 14px;&quot;&gt;&amp;nbsp; - MX_TIM2_Init()&lt;/font&gt;&lt;/div&gt;&lt;div style=&quot;font-size: 14px;&quot;&gt;&lt;font style=&quot;font-size: 14px;&quot;&gt;&amp;nbsp; - MX_TIM3_Init()&lt;/font&gt;&lt;/div&gt;&lt;div style=&quot;font-size: 14px;&quot;&gt;&lt;font style=&quot;font-size: 14px;&quot;&gt;&amp;nbsp; - HD44780_Init(2)&lt;/font&gt;&lt;/div&gt;" style="rounded=0;whiteSpace=wrap;html=1;fontSize=12;align=left;" parent="1" vertex="1">
                    <mxGeometry x="400" y="60" width="190" height="180" as="geometry"/>
                </mxCell>
                <mxCell id="78" value="STATUS_IDLE" style="shape=hexagon;perimeter=hexagonPerimeter2;whiteSpace=wrap;html=1;fixedSize=1;fontSize=12;" parent="1" vertex="1">
                    <mxGeometry x="150" y="330" width="120" height="60" as="geometry"/>
                </mxCell>
                <mxCell id="98" style="edgeStyle=none;html=1;exitX=0.5;exitY=0;exitDx=0;exitDy=0;entryX=0;entryY=0.5;entryDx=0;entryDy=0;fontSize=14;" parent="1" source="97" target="19" edge="1">
                    <mxGeometry relative="1" as="geometry">
                        <Array as="points">
                            <mxPoint x="370" y="830"/>
                        </Array>
                    </mxGeometry>
                </mxCell>
                <mxCell id="102" value=".START" style="edgeLabel;html=1;align=center;verticalAlign=middle;resizable=0;points=[];fontSize=14;" parent="98" vertex="1" connectable="0">
                    <mxGeometry x="-0.2245" relative="1" as="geometry">
                        <mxPoint x="6" as="offset"/>
                    </mxGeometry>
                </mxCell>
                <mxCell id="100" value="" style="edgeStyle=none;html=1;fontSize=14;exitX=0.5;exitY=1;exitDx=0;exitDy=0;" parent="1" source="97" target="99" edge="1">
                    <mxGeometry relative="1" as="geometry">
                        <Array as="points">
                            <mxPoint x="370" y="970"/>
                        </Array>
                    </mxGeometry>
                </mxCell>
                <mxCell id="101" value=".STOP" style="edgeLabel;html=1;align=center;verticalAlign=middle;resizable=0;points=[];fontSize=14;" parent="100" vertex="1" connectable="0">
                    <mxGeometry x="-0.1633" y="-3" relative="1" as="geometry">
                        <mxPoint x="1" y="-3" as="offset"/>
                    </mxGeometry>
                </mxCell>
                <mxCell id="97" value="FLAG" style="rhombus;whiteSpace=wrap;html=1;fontSize=14;" parent="1" vertex="1">
                    <mxGeometry x="330" y="860" width="80" height="80" as="geometry"/>
                </mxCell>
                <mxCell id="104" value="" style="edgeStyle=none;html=1;fontSize=14;" parent="1" source="99" target="103" edge="1">
                    <mxGeometry relative="1" as="geometry"/>
                </mxCell>
                <mxCell id="99" value="performStop()" style="whiteSpace=wrap;html=1;fontSize=14;" parent="1" vertex="1">
                    <mxGeometry x="480" y="940" width="120" height="60" as="geometry"/>
                </mxCell>
                <mxCell id="105" style="edgeStyle=none;html=1;exitX=1;exitY=0.5;exitDx=0;exitDy=0;entryX=0.5;entryY=0;entryDx=0;entryDy=0;fontSize=14;" parent="1" source="103" target="51" edge="1">
                    <mxGeometry relative="1" as="geometry">
                        <mxPoint x="650" y="969.9999999999995" as="sourcePoint"/>
                        <Array as="points">
                            <mxPoint x="910" y="970"/>
                        </Array>
                    </mxGeometry>
                </mxCell>
                <mxCell id="103" value="handleStop()" style="whiteSpace=wrap;html=1;fontSize=14;" parent="1" vertex="1">
                    <mxGeometry x="680" y="940" width="120" height="60" as="geometry"/>
                </mxCell>
            </root>
        </mxGraphModel>
    </diagram>
</mxfile>